<svg xmlns="http://www.w3.org/2000/svg" viewBox="0 0 64 64" role="img" aria-label="Africa Heritage News Network favicon">
  <defs>
    <linearGradient id="bg" x1="0" x2="1" y1="0" y2="1">
      <stop offset="0%" stop-color="#1a1a1a"/>
      <stop offset="100%" stop-color="#2d2d2d"/>
    </linearGradient>
    <linearGradient id="map" x1="0" x2="1" y1="0" y2="1">
      <stop offset="0%" stop-color="#f8d28d"/>
      <stop offset="100%" stop-color="#d97706"/>
    </linearGradient>
  </defs>
  <rect width="64" height="64" rx="14" fill="url(#bg)"/>
  <path d="M23 11l8-4 10 3 8 8-2 9 5 8-4 9-9 6-10 2-9-3-7-10 2-10-4-8 4-8 8-5z" fill="url(#map)" stroke="#f4efe6" stroke-width="1.6" stroke-linejoin="round"/>
  <path d="M29 18l3-2 5 2 2 4-2 5-5 2-3-2-2-4 2-5z" fill="#1a1a1a" opacity="0.5"/>
  <path d="M22 28h7m-4 5h6m-7 5h8m-10-15l4 3m11-3l-4 3m-4-10l-2 5m12-5l2 5" stroke="#f4efe6" stroke-width="1.3" stroke-linecap="round"/>
</svg>
